<?xml version="1.0" encoding="UTF-8" standalone="no"?>
<!-- Generator: Adobe Illustrator 19.1.0, SVG Export Plug-In . SVG Version: 6.00 Build 0)  -->

<svg
   xmlns:dc="http://purl.org/dc/elements/1.1/"
   xmlns:cc="http://creativecommons.org/ns#"
   xmlns:rdf="http://www.w3.org/1999/02/22-rdf-syntax-ns#"
   xmlns:svg="http://www.w3.org/2000/svg"
   xmlns="http://www.w3.org/2000/svg"
   xmlns:sodipodi="http://sodipodi.sourceforge.net/DTD/sodipodi-0.dtd"
   xmlns:inkscape="http://www.inkscape.org/namespaces/inkscape"
   version="1.1"
   id="Capa_1"
   x="0px"
   y="0px"
   viewBox="0 0 485.5 485.5"
   style="enable-background:new 0 0 485.5 485.5;"
   xml:space="preserve"
   width="512px"
   height="512px"
   inkscape:version="0.91 r13725"
   sodipodi:docname="berry.svg"><metadata
   id="metadata4181"><rdf:RDF><cc:Work
       rdf:about=""><dc:format>image/svg+xml</dc:format><dc:type
         rdf:resource="http://purl.org/dc/dcmitype/StillImage" /></cc:Work></rdf:RDF></metadata><defs
   id="defs4179" /><sodipodi:namedview
   pagecolor="#ffffff"
   bordercolor="#666666"
   borderopacity="1"
   objecttolerance="10"
   gridtolerance="10"
   guidetolerance="10"
   inkscape:pageopacity="0"
   inkscape:pageshadow="2"
   inkscape:window-width="1366"
   inkscape:window-height="705"
   id="namedview4177"
   showgrid="false"
   inkscape:zoom="1.0351562"
   inkscape:cx="91.290558"
   inkscape:cy="256"
   inkscape:window-x="-8"
   inkscape:window-y="32"
   inkscape:window-maximized="1"
   inkscape:current-layer="g4137" />
<g
   id="g4137"
   style="fill:#000000;fill-opacity:1">
	<g
   id="g4139"
   style="fill:#ffffff;fill-opacity:1">
		<path
   d="M422.1,126.2H126.4c-27.4,0-49.8-22.3-49.8-49.8c0-27.4,22.3-49.8,49.8-49.8h295.8c7.4,0,13.3-6,13.3-13.3    c0-7.4-6-13.3-13.3-13.3H126.4C84.3,0,50,34.3,50,76.4v332.7c0,42.1,34.3,76.4,76.4,76.4h295.8c7.4,0,13.3-6,13.3-13.3V139.5    C435.4,132.2,429.5,126.2,422.1,126.2z M408.8,458.9H126.4c-27.4,0-49.8-22.3-49.8-49.8V134.4c13.4,11.5,30.8,18.5,49.8,18.5    h282.4L408.8,458.9L408.8,458.9z"
   fill="#FFFFFF"
   id="path4141"
   style="fill:#ffffff;fill-opacity:1" />
		<path
   d="M130.6,64.3c-7.4,0-13.3,6-13.3,13.3s6,13.3,13.3,13.3h249.8c7.4,0,13.3-6,13.3-13.3s-6-13.3-13.3-13.3H130.6z"
   fill="#FFFFFF"
   id="path4143"
   style="fill:#ffffff;fill-opacity:1" />
		
	</g>
<g
   transform="matrix(0.58920482,0,0,0.59958139,121.83244,180.12948)"
   id="g4184"
   style="fill:#ffffff;fill-opacity:1"><g
     id="Layer_3_26_"
     style="fill:#ffffff;fill-opacity:1"><path
       inkscape:connector-curvature="0"
       d="m 320.84,157.708 c -27.979,-8.959 -57.091,-3.855 -79.703,11.376 -12.5,-20.892 -19.666,-38.903 -20.904,-52.52 84.176,-16.205 150.085,-40.502 196.429,-72.5 L 398.135,17.231 C 270.287,105.504 2.988,105.415 0.155,105.357 l -0.002,0 L 0,137.965 c 0.148,0 0.474,0.001 0.971,0.001 8.992,0 73.983,-0.389 154.76,-11.031 9.547,-1.258 18.884,-2.61 28.051,-4.04 -3.188,15.887 -13.016,36.528 -28.779,60.072 -8.402,12.547 -17.123,23.866 -24.069,32.407 -46.939,4.304 -83.706,43.762 -83.706,91.824 0,50.938 41.293,92.232 92.232,92.232 42.076,0 77.556,-28.182 88.634,-66.693 -27.915,-18.109 -46.393,-49.523 -46.393,-85.277 0,-7.225 0.763,-14.271 2.198,-21.067 -4.773,-2.628 -9.798,-4.854 -15.035,-6.619 4.223,-5.651 8.629,-11.803 12.992,-18.305 8.332,-12.414 15.2,-24.161 20.617,-35.228 4.094,8.359 9.019,17.111 14.775,26.243 -5.234,7.45 -9.449,15.809 -12.372,24.938 -15.533,48.513 11.2,100.432 59.714,115.966 48.514,15.532 100.434,-11.202 115.966,-59.714 15.533,-48.513 -11.202,-100.432 -59.716,-115.966 z m -177.733,94.889 c -25.776,-6.599 -41.464,13.834 -42.119,14.707 l -12.062,-8.917 c 0.89,-1.208 22.182,-29.467 57.901,-20.321 l -3.72,14.531 z M 333.89,219.372 c -6.359,-25.835 -31.779,-30.009 -32.858,-30.175 l 2.163,-14.843 c 1.483,0.213 36.448,5.63 45.262,41.435 l -14.567,3.583 z"
       id="path4187"
       style="fill:#ffffff;fill-opacity:1" /></g></g><g
   transform="matrix(1.1652158,0,0,1.1652158,-7.3288747,-161.22263)"
   id="g4189"
   style="fill:#ffffff;fill-opacity:1" /><g
   transform="matrix(1.1652158,0,0,1.1652158,-7.3288747,-161.22263)"
   id="g4191"
   style="fill:#ffffff;fill-opacity:1" /><g
   transform="matrix(1.1652158,0,0,1.1652158,-7.3288747,-161.22263)"
   id="g4193"
   style="fill:#ffffff;fill-opacity:1" /><g
   transform="matrix(1.1652158,0,0,1.1652158,-7.3288747,-161.22263)"
   id="g4195"
   style="fill:#ffffff;fill-opacity:1" /><g
   transform="matrix(1.1652158,0,0,1.1652158,-7.3288747,-161.22263)"
   id="g4197"
   style="fill:#ffffff;fill-opacity:1" /><g
   transform="matrix(1.1652158,0,0,1.1652158,-7.3288747,-161.22263)"
   id="g4199"
   style="fill:#ffffff;fill-opacity:1" /><g
   transform="matrix(1.1652158,0,0,1.1652158,-7.3288747,-161.22263)"
   id="g4201"
   style="fill:#ffffff;fill-opacity:1" /><g
   transform="matrix(1.1652158,0,0,1.1652158,-7.3288747,-161.22263)"
   id="g4203"
   style="fill:#ffffff;fill-opacity:1" /><g
   transform="matrix(1.1652158,0,0,1.1652158,-7.3288747,-161.22263)"
   id="g4205"
   style="fill:#ffffff;fill-opacity:1" /><g
   transform="matrix(1.1652158,0,0,1.1652158,-7.3288747,-161.22263)"
   id="g4207"
   style="fill:#ffffff;fill-opacity:1" /><g
   transform="matrix(1.1652158,0,0,1.1652158,-7.3288747,-161.22263)"
   id="g4209"
   style="fill:#ffffff;fill-opacity:1" /><g
   transform="matrix(1.1652158,0,0,1.1652158,-7.3288747,-161.22263)"
   id="g4211"
   style="fill:#ffffff;fill-opacity:1" /><g
   transform="matrix(1.1652158,0,0,1.1652158,-7.3288747,-161.22263)"
   id="g4213"
   style="fill:#ffffff;fill-opacity:1" /><g
   transform="matrix(1.1652158,0,0,1.1652158,-7.3288747,-161.22263)"
   id="g4215"
   style="fill:#ffffff;fill-opacity:1" /><g
   transform="matrix(1.1652158,0,0,1.1652158,-7.3288747,-161.22263)"
   id="g4217"
   style="fill:#ffffff;fill-opacity:1" /></g>
<g
   id="g4147"
   style="fill:#000000;fill-opacity:1">
</g>
<g
   id="g4149"
   style="fill:#000000;fill-opacity:1">
</g>
<g
   id="g4151"
   style="fill:#000000;fill-opacity:1">
</g>
<g
   id="g4153"
   style="fill:#000000;fill-opacity:1">
</g>
<g
   id="g4155"
   style="fill:#000000;fill-opacity:1">
</g>
<g
   id="g4157"
   style="fill:#000000;fill-opacity:1">
</g>
<g
   id="g4159"
   style="fill:#000000;fill-opacity:1">
</g>
<g
   id="g4161"
   style="fill:#000000;fill-opacity:1">
</g>
<g
   id="g4163"
   style="fill:#000000;fill-opacity:1">
</g>
<g
   id="g4165"
   style="fill:#000000;fill-opacity:1">
</g>
<g
   id="g4167"
   style="fill:#000000;fill-opacity:1">
</g>
<g
   id="g4169"
   style="fill:#000000;fill-opacity:1">
</g>
<g
   id="g4171"
   style="fill:#000000;fill-opacity:1">
</g>
<g
   id="g4173"
   style="fill:#000000;fill-opacity:1">
</g>
<g
   id="g4175"
   style="fill:#000000;fill-opacity:1">
</g>
</svg>