<?xml version="1.0" encoding="UTF-8" standalone="no"?>
<!-- Generator: Adobe Illustrator 19.1.0, SVG Export Plug-In . SVG Version: 6.00 Build 0)  -->

<svg
   xmlns:dc="http://purl.org/dc/elements/1.1/"
   xmlns:cc="http://creativecommons.org/ns#"
   xmlns:rdf="http://www.w3.org/1999/02/22-rdf-syntax-ns#"
   xmlns:svg="http://www.w3.org/2000/svg"
   xmlns="http://www.w3.org/2000/svg"
   xmlns:sodipodi="http://sodipodi.sourceforge.net/DTD/sodipodi-0.dtd"
   xmlns:inkscape="http://www.inkscape.org/namespaces/inkscape"
   version="1.1"
   id="Capa_1"
   x="0px"
   y="0px"
   viewBox="0 0 485.5 485.5"
   style="enable-background:new 0 0 485.5 485.5;"
   xml:space="preserve"
   width="512px"
   height="512px"
   inkscape:version="0.91 r13725"
   sodipodi:docname="book.svg"><metadata
   id="metadata4181"><rdf:RDF><cc:Work
       rdf:about=""><dc:format>image/svg+xml</dc:format><dc:type
         rdf:resource="http://purl.org/dc/dcmitype/StillImage" /><dc:title></dc:title></cc:Work></rdf:RDF></metadata><defs
   id="defs4179" /><sodipodi:namedview
   pagecolor="#ffffff"
   bordercolor="#666666"
   borderopacity="1"
   objecttolerance="10"
   gridtolerance="10"
   guidetolerance="10"
   inkscape:pageopacity="0"
   inkscape:pageshadow="2"
   inkscape:window-width="1366"
   inkscape:window-height="705"
   id="namedview4177"
   showgrid="false"
   inkscape:zoom="1.0351562"
   inkscape:cx="91.290558"
   inkscape:cy="256"
   inkscape:window-x="-8"
   inkscape:window-y="32"
   inkscape:window-maximized="1"
   inkscape:current-layer="g4137" />
<g
   id="g4137"
   style="fill:#000000;fill-opacity:1">
	<g
   id="g4139"
   style="fill:#ffffff;fill-opacity:1">
		<path
   d="M422.1,126.2H126.4c-27.4,0-49.8-22.3-49.8-49.8c0-27.4,22.3-49.8,49.8-49.8h295.8c7.4,0,13.3-6,13.3-13.3    c0-7.4-6-13.3-13.3-13.3H126.4C84.3,0,50,34.3,50,76.4v332.7c0,42.1,34.3,76.4,76.4,76.4h295.8c7.4,0,13.3-6,13.3-13.3V139.5    C435.4,132.2,429.5,126.2,422.1,126.2z M408.8,458.9H126.4c-27.4,0-49.8-22.3-49.8-49.8V134.4c13.4,11.5,30.8,18.5,49.8,18.5    h282.4L408.8,458.9L408.8,458.9z"
   fill="#FFFFFF"
   id="path4141"
   style="fill:#ffffff;fill-opacity:1" />
		<path
   d="M130.6,64.3c-7.4,0-13.3,6-13.3,13.3s6,13.3,13.3,13.3h249.8c7.4,0,13.3-6,13.3-13.3s-6-13.3-13.3-13.3H130.6z"
   fill="#FFFFFF"
   id="path4143"
   style="fill:#ffffff;fill-opacity:1" />
		
	</g>
<g
   transform="matrix(1.1652158,0,0,1.1652158,-7.3288747,-161.22263)"
   id="g4189"
   style="fill:#ffffff;fill-opacity:1" /><g
   transform="matrix(1.1652158,0,0,1.1652158,-7.3288747,-161.22263)"
   id="g4191"
   style="fill:#ffffff;fill-opacity:1" /><g
   transform="matrix(1.1652158,0,0,1.1652158,-7.3288747,-161.22263)"
   id="g4193"
   style="fill:#ffffff;fill-opacity:1" /><g
   transform="matrix(1.1652158,0,0,1.1652158,-7.3288747,-161.22263)"
   id="g4195"
   style="fill:#ffffff;fill-opacity:1" /><g
   transform="matrix(1.1652158,0,0,1.1652158,-7.3288747,-161.22263)"
   id="g4197"
   style="fill:#ffffff;fill-opacity:1" /><g
   transform="matrix(1.1652158,0,0,1.1652158,-7.3288747,-161.22263)"
   id="g4199"
   style="fill:#ffffff;fill-opacity:1" /><g
   transform="matrix(1.1652158,0,0,1.1652158,-7.3288747,-161.22263)"
   id="g4201"
   style="fill:#ffffff;fill-opacity:1" /><g
   transform="matrix(1.1652158,0,0,1.1652158,-7.3288747,-161.22263)"
   id="g4203"
   style="fill:#ffffff;fill-opacity:1" /><g
   transform="matrix(1.1652158,0,0,1.1652158,-7.3288747,-161.22263)"
   id="g4205"
   style="fill:#ffffff;fill-opacity:1" /><g
   transform="matrix(1.1652158,0,0,1.1652158,-7.3288747,-161.22263)"
   id="g4207"
   style="fill:#ffffff;fill-opacity:1" /><g
   transform="matrix(1.1652158,0,0,1.1652158,-7.3288747,-161.22263)"
   id="g4209"
   style="fill:#ffffff;fill-opacity:1" /><g
   transform="matrix(1.1652158,0,0,1.1652158,-7.3288747,-161.22263)"
   id="g4211"
   style="fill:#ffffff;fill-opacity:1" /><g
   transform="matrix(1.1652158,0,0,1.1652158,-7.3288747,-161.22263)"
   id="g4213"
   style="fill:#ffffff;fill-opacity:1" /><g
   transform="matrix(1.1652158,0,0,1.1652158,-7.3288747,-161.22263)"
   id="g4215"
   style="fill:#ffffff;fill-opacity:1" /><g
   transform="matrix(1.1652158,0,0,1.1652158,-7.3288747,-161.22263)"
   id="g4217"
   style="fill:#ffffff;fill-opacity:1" /><text
   xml:space="preserve"
   style="font-style:normal;font-weight:normal;font-size:277.31762695px;line-height:125%;font-family:sans-serif;letter-spacing:0px;word-spacing:0px;fill:#ffffff;fill-opacity:1;stroke:none;stroke-width:1px;stroke-linecap:butt;stroke-linejoin:miter;stroke-opacity:1;"
   x="147.32706"
   y="400.30847"
   id="text4745"
   sodipodi:linespacing="125%"><tspan
     sodipodi:role="line"
     id="tspan4747"
     x="147.32706"
     y="400.30847">B</tspan></text>
</g>
<g
   id="g4147"
   style="fill:#000000;fill-opacity:1">
</g>
<g
   id="g4149"
   style="fill:#000000;fill-opacity:1">
</g>
<g
   id="g4151"
   style="fill:#000000;fill-opacity:1">
</g>
<g
   id="g4153"
   style="fill:#000000;fill-opacity:1">
</g>
<g
   id="g4155"
   style="fill:#000000;fill-opacity:1">
</g>
<g
   id="g4157"
   style="fill:#000000;fill-opacity:1">
</g>
<g
   id="g4159"
   style="fill:#000000;fill-opacity:1">
</g>
<g
   id="g4161"
   style="fill:#000000;fill-opacity:1">
</g>
<g
   id="g4163"
   style="fill:#000000;fill-opacity:1">
</g>
<g
   id="g4165"
   style="fill:#000000;fill-opacity:1">
</g>
<g
   id="g4167"
   style="fill:#000000;fill-opacity:1">
</g>
<g
   id="g4169"
   style="fill:#000000;fill-opacity:1">
</g>
<g
   id="g4171"
   style="fill:#000000;fill-opacity:1">
</g>
<g
   id="g4173"
   style="fill:#000000;fill-opacity:1">
</g>
<g
   id="g4175"
   style="fill:#000000;fill-opacity:1">
</g>
</svg>