<svg xmlns="http://www.w3.org/2000/svg" viewBox="0 0 60.002 60.002" width="512" height="512"><g fill="#f33"><path d="M59.795 26.57c-.4-1.7-1.364-3.158-2.576-3.904-.812-.5-1.676-.662-2.51-.46-.188.044-.37.113-.548.197-2.336-5.685-5.98-9.364-9.727-11.737l1.36-2.72c.247-.493.047-1.094-.447-1.34-.493-.246-1.095-.048-1.342.446l-1.303 2.605c-.617-.328-1.23-.626-1.838-.892l.983-2.95c.175-.523-.108-1.09-.632-1.264-.528-.175-1.09.11-1.265.633l-.947 2.844c-.693-.248-1.366-.46-2.012-.642l.858-2.57c.175-.524-.108-1.09-.632-1.265-.53-.177-1.09.108-1.265.632l-.907 2.724c-1.264-.265-2.343-.41-3.143-.488V4.5c0-.553-.447-1-1-1s-1 .447-1 1v1.844c-.525.026-1.44.097-2.632.283l-.382-2.292c-.09-.545-.608-.92-1.15-.822-.545.09-.913.606-.822 1.15l.39 2.34c-1.072.242-2.258.573-3.51 1.02l-.946-2.84c-.174-.524-.735-.81-1.265-.633-.523.174-.807.74-.632 1.265l.982 2.944c-.863.377-1.742.82-2.62 1.326L15.793 7.05c-.248-.493-.848-.69-1.342-.446-.494.247-.694.848-.447 1.342l1.6 3.202c-.88.602-1.748 1.288-2.593 2.05l-2.406-2.406c-.39-.39-1.023-.39-1.414 0s-.39 1.023 0 1.414l2.388 2.388c-3.076 3.273-5.646 7.835-6.826 14.214-.015.083-.025.166-.04.25-.254-.07-.512-.12-.776-.12C1.73 28.94 0 31.323 0 34.364s1.73 5.424 3.94 5.424c.403 0 .797-.102 1.176-.267.7 2.67 1.863 5.18 3.458 7.38 3.244 4.472 9.62 9.768 21.817 9.6.187.004.37.005.552.005 11.796 0 18.07-5.202 21.267-9.605 2.88-3.97 4.345-8.946 4.228-14.077.035 0 .07.014.105.014.227 0 .45-.025.67-.078 2.15-.514 3.283-3.233 2.582-6.19zM4.675 37.49c-.207.165-.457.297-.735.297-.918 0-1.94-1.407-1.94-3.424s1.022-3.424 1.94-3.424c.166 0 .334.046.503.138-.05.53-.08 1.06-.096 1.59 0 .043 0 .087-.002.13-.01.43-.008.86.004 1.288.003.15.008.3.015.45.016.34.04.677.07 1.015.013.16.022.316.04.474.046.432.104.862.174 1.29.01.057.014.116.024.175zm45.916 8.235c-4.316 5.95-11.137 8.915-20.184 8.775h-.027c-9.078.157-15.87-2.826-20.186-8.775-2.062-2.843-3.33-6.257-3.726-9.868-.008-.076-.01-.154-.017-.23-.055-.57-.087-1.148-.1-1.727-.005-.25 0-.504.003-.756.004-.405.02-.81.046-1.216.02-.3.04-.597.07-.896.064-.62.137-1.24.252-1.86 1.097-5.93 3.438-10.164 6.237-13.2l1.234 1.235c.195.195.45.293.707.293s.513-.098.708-.293c.39-.39.39-1.023 0-1.414l-1.23-1.23c.685-.618 1.385-1.18 2.095-1.682l.533 1.068c.176.35.528.553.896.553.15 0 .303-.033.446-.104.494-.247.694-.848.447-1.342l-.628-1.256c.795-.464 1.59-.872 2.372-1.22l.412 1.24c.14.42.53.684.948.684.104 0 .21-.017.316-.052.523-.174.807-.74.632-1.265l-.45-1.35c1.148-.406 2.236-.7 3.224-.916l.29 1.746c.082.49.506.836.986.836.055 0 .11-.004.165-.014.545-.09.913-.606.822-1.15L27.59 8.56c1.02-.145 1.823-.2 2.31-.22v2.16c0 .553.446 1 1 1s1-.447 1-1V8.416c.665.065 1.52.177 2.516.373l-.465 1.393c-.174.524.11 1.09.633 1.265.105.035.212.052.316.052.418 0 .808-.265.947-.684l.522-1.566c.643.176 1.317.385 2.013.634l-.433 1.3c-.175.523.108 1.09.632 1.264.105.035.212.052.316.052.42 0 .81-.265.948-.684l.395-1.185c.178.08.354.155.533.24.36.17.707.352 1.053.537l-.823 1.645c-.247.494-.047 1.095.447 1.342.144.07.296.105.446.105.367 0 .72-.203.896-.554l.763-1.526c4.174 2.69 7.196 6.517 9.04 11.43l-.003.003.182.513c.272.767.51 1.535.72 2.312l.037.142c.204.766.38 1.542.53 2.338 0 .005 0 .01.002.013.122.66.204 1.32.268 1.98.012.126.03.25.04.376.422 5.167-.906 10.238-3.78 14.2zm6.16-14.912c-.134.03-.28.032-.435 0-.004-.038-.01-.072-.015-.11-.068-.626-.152-1.253-.267-1.88 0-.005 0-.01-.002-.017-.003-.024-.01-.046-.015-.07-.14-.745-.3-1.46-.476-2.156-.022-.08-.047-.162-.07-.243-.18-.69-.377-1.357-.59-2-.006-.015-.01-.03-.014-.044.1-.07.204-.117.31-.143.378-.088.75.07.994.22.758.466 1.4 1.485 1.68 2.66.464 1.964-.205 3.57-1.1 3.783z"/><path d="M27.86 30.32c1.44 3.058 4.543 5.184 8.14 5.184 4.963 0 9-4.037 9-9s-4.037-9-9-9c-3.598 0-6.7 2.126-8.14 5.184-1.25-1.914-3.408-3.184-5.86-3.184-3.86 0-7 3.14-7 7s3.14 7 7 7c2.452 0 4.61-1.27 5.86-3.184zM36 19.504c3.86 0 7 3.14 7 7s-3.14 7-7 7-7-3.14-7-7 3.14-7 7-7zm-19 7c0-2.757 2.243-5 5-5s5 2.243 5 5-2.243 5-5 5-5-2.243-5-5z"/><circle cx="22" cy="26.504" r="2"/><circle cx="36" cy="26.504" r="3"/><path d="M50 38.504c-.553 0-1 .447-1 1 0 .38-.078.74-.208 1.077-4.814-2.302-10.228-2.713-15.342-1.104-5.112 1.608-9.315 5.045-11.944 9.692-.32-.476-.506-1.048-.506-1.664 0-.553-.447-1-1-1s-1 .447-1 1c0 2.757 2.243 5 5 5 .553 0 1-.447 1-1s-.447-1-1-1c-.307 0-.597-.06-.876-.146 2.37-4.31 6.225-7.496 10.927-8.975 4.44-1.397 9.13-1.11 13.353.757-.42.225-.893.364-1.403.364-.553 0-1 .447-1 1s.447 1 1 1c2.757 0 5-2.243 5-5 0-.552-.447-1-1-1z"/></g></svg>